<?xml version="1.0" encoding="UTF-8" standalone="no"?><!DOCTYPE svg PUBLIC "-//W3C//DTD SVG 1.1//EN" "http://www.w3.org/Graphics/SVG/1.1/DTD/svg11.dtd"><svg width="100%" height="100%" viewBox="0 0 1667 331" version="1.1" xmlns="http://www.w3.org/2000/svg" xmlns:xlink="http://www.w3.org/1999/xlink" xml:space="preserve" xmlns:serif="http://www.serif.com/" style="fill-rule:evenodd;clip-rule:evenodd;stroke-linejoin:round;stroke-miterlimit:1.41421;"><g id="svgg"><path id="path0" d="M552.792,81.075c0.008,62.379 0.191,77.479 1.004,83.163c5.479,38.27 32.033,69.875 68.425,81.437c11.196,3.558 28.808,5.992 29.992,4.146c0.304,-0.475 0.479,-10.863 0.387,-23.083l-0.171,-22.225l-2.775,-0.18c-23.412,-1.516 -42.641,-17.254 -49.046,-40.145c-1.483,-5.292 -1.545,-6.7 -1.595,-36.063l-0.055,-30.554l26.738,-0.35l26.733,-0.346l0.184,-22.733l0.183,-22.738l-26.917,-0.179l-26.921,-0.183l-0.183,-23.092l-0.183,-23.087l-22.909,0l-22.904,0l0.013,76.212m-465.988,-28.238c-46.271,10.109 -77.396,45.034 -81.208,91.126c-0.467,5.637 -0.733,40.766 -0.733,96.004l0,87.116l46.495,0l0.188,-92.883l0.192,-92.879l1.987,-5.904c14.779,-43.817 71.163,-51.863 96.067,-13.709c15.712,24.075 8.796,58.009 -15.025,73.7c-6.921,4.563 -18.975,8.759 -25.163,8.759c-5.071,0 -4.741,-1.617 -4.741,23.296c0,12.35 0.233,22.6 0.52,22.775c0.284,0.174 4.425,-0.092 9.2,-0.588c83.775,-8.771 120.075,-109.529 60.8,-168.779c-16.087,-16.079 -31.095,-23.813 -55.8,-28.746c-6.083,-1.217 -25.925,-0.783 -32.779,0.712m215.004,-0.029c-104.479,21.738 -109.383,166.979 -6.562,194.359c4.746,1.262 23.383,3.879 23.908,3.358c0.642,-0.646 0.684,-44.992 0.042,-45.633c-0.396,-0.4 -2.146,-0.734 -3.883,-0.738c-25.371,-0.121 -48.646,-25.737 -48.646,-53.55c0,-60.812 84.337,-73.496 104.354,-15.696l2.217,6.413l0.441,109.375l45.767,0l0,-54.175c0,-65.421 -0.221,-67.554 -9.029,-87.034c-18.492,-40.904 -65.788,-65.587 -108.609,-56.679m218.68,-0.387c-39.096,6.133 -71.696,35.421 -80.992,72.762c-3.304,13.275 -3.358,14.438 -3.371,71.517l-0.012,53.996l45.833,0l0.004,-51.563c0.004,-54.766 0.104,-56.658 3.421,-66.329c6.967,-20.3 28.012,-35.583 49.008,-35.583l3.729,0l0.371,-2.95c0.413,-3.321 1.804,-33.617 1.8,-39.238l0,-3.645l-7.121,0.079c-3.912,0.046 -9.616,0.475 -12.67,0.954m149.65,98.621l0,99.654l45.833,0l0,-99.654l0,-99.654l-22.917,0l-22.916,0l0,99.654m148.266,-98.992c-1.146,0.292 -4.583,1.088 -7.641,1.767c-87.942,19.487 -105.809,137.9 -27.655,183.287c13.18,7.654 45.717,16.292 49,13.009c0.305,-0.3 0.467,-10.684 0.367,-23.076l-0.183,-22.524l-4.863,-0.459c-31.941,-3.033 -55.266,-36.333 -46.612,-66.554c16.291,-56.9 96.754,-51.571 104.862,6.946l0.821,5.9l22.721,0.183l22.725,0.184l0,-5.53c0,-22.37 -12.004,-48.475 -30.396,-66.095c-15.121,-14.488 -30.808,-22.292 -54.187,-26.963c-4.171,-0.833 -25.788,-0.892 -28.959,-0.075m130.9,98.992l0,99.654l45.834,0l0,-99.654l0,-99.655l-22.917,0.001l-22.917,0l0,99.654m141.667,-97.563c-38.867,8.896 -67.692,37.379 -76.304,75.396c-2.709,11.954 -2.863,17.767 -2.863,109.346l0,88.862l46.504,0l0.188,-93.229l0.183,-93.229l1.971,-5.904c14.238,-42.725 70.571,-50.709 95.521,-13.542c18.112,26.983 6.492,67.625 -22.492,78.65c-5.496,2.092 -12.258,3.804 -16.666,4.225l-4.859,0.459l-0.183,22.524c-0.104,12.392 0.054,22.759 0.346,23.042c0.871,0.846 18.087,-1.354 25.008,-3.196c52.071,-13.862 83.575,-66.491 71.288,-119.104c-12.163,-52.087 -66.034,-86.108 -117.642,-74.3m306.946,97.563l0,99.654l45.833,0l0,-99.654l0,-99.655l-22.917,0l-22.916,0l0,99.655m143.75,-97.88c-70.825,15.409 -103.475,93.292 -64.038,152.742c34.546,52.071 108.829,59.467 153.167,15.246c53.667,-53.517 29.892,-145.075 -43.063,-165.85c-15.429,-4.392 -14.879,-4.625 -16.187,6.854c-1.267,11.129 -1.963,16.817 -3.133,25.646c-1.334,10.017 -1.459,9.65 3.566,10.767c48.425,10.745 57.025,77.054 12.967,100.012c-9.421,4.909 -26.471,7.129 -35.292,4.6c-1.912,-0.546 -4.725,-1.346 -6.25,-1.775c-20.158,-5.667 -35.212,-25.842 -36.296,-48.629c-1.212,-25.583 16.6,-48.463 42.196,-54.204c4.659,-1.042 4.779,-1.213 4.088,-5.725c-0.513,-3.359 -1.679,-13.109 -3.463,-28.959c-1.437,-12.762 -1.071,-12.291 -8.262,-10.725m-321.909,156.046c-0.183,0.48 -0.25,10.796 -0.15,22.921l0.184,22.05l75.175,0.167l75.171,0.166l0,-23.087l0,-23.092l-75.021,0c-59.65,0 -75.092,0.179 -75.359,0.875" style="fill:#fbfbfc;"/></g></svg>